<svg width="37" height="37" viewBox="0 0 37 37" fill="none" xmlns="http://www.w3.org/2000/svg">
<g clip-path="url(#clip0_3273_1396)">
<path d="M11.2986 3.44351L11.2988 3.4437L11.3038 3.43881C12.6398 2.13618 14.4641 1.33315 16.4734 1.33315C18.5195 1.33315 20.3727 2.16322 21.7141 3.50464C23.0555 4.84605 23.8856 6.69918 23.8856 8.74532C23.8856 10.7915 23.0555 12.6446 21.7141 13.986C20.3727 15.3274 18.5195 16.1575 16.4734 16.1575C14.4305 16.1575 12.5788 15.3275 11.2371 13.986C9.89555 12.6445 9.06094 10.7913 9.06094 8.74532C9.06094 6.69918 9.89101 4.84605 11.2324 3.50464C11.254 3.48308 11.2761 3.46253 11.2986 3.44351ZM12.8888 5.04982L12.8887 5.04974L12.8855 5.05324L12.8338 5.10831C11.9037 6.03897 11.328 7.32513 11.328 8.74532C11.328 10.1661 11.9042 11.4527 12.835 12.3835L12.835 12.3835C13.7654 13.3124 15.0508 13.8904 16.4734 13.8904C17.8942 13.8904 19.1808 13.3142 20.1115 12.3835C21.0423 11.4527 21.6185 10.1661 21.6185 8.74532C21.6185 7.32455 21.0423 6.03792 20.1115 5.10717C19.1808 4.17642 17.8942 3.60021 16.4734 3.60021C15.0792 3.60021 13.8146 4.15319 12.8888 5.04982Z" fill="#160647" stroke="#160647" stroke-width="0.2"/>
<path d="M2.71912 35.462L2.71908 35.462C2.68047 35.4449 2.64336 35.426 2.60793 35.4056L2.07568 34.7245L1.90127 34.8154C1.90861 34.8393 1.91662 34.8631 1.92529 34.8866C1.91944 34.8802 1.91362 34.8739 1.90782 34.8675L1.90774 34.8674C1.67574 34.6121 1.50337 34.3226 1.39669 34.0004L1.39666 34.0003C1.29132 33.6832 1.25431 33.3496 1.28766 33.0066L1.28766 33.0066C1.67411 29.0267 3.55276 25.4828 6.35634 22.9418L6.35634 22.9418C9.13527 20.4228 12.8192 18.8881 16.8552 18.8881C19.511 18.8881 22.0144 19.5525 24.2068 20.7245C24.4636 20.8618 24.6315 21.0737 24.7065 21.3549C24.7816 21.6364 24.7413 21.9035 24.587 22.1504L24.6718 22.2034L24.587 22.1505L24.4594 22.3547C24.1778 22.8051 23.599 22.9604 23.1297 22.7112L23.0832 22.7987L23.1297 22.7112C21.2595 21.7181 19.1236 21.1551 16.8552 21.1551C13.394 21.1551 10.2416 22.4652 7.86984 24.6151C5.47397 26.7865 3.86765 29.8145 3.53623 33.2146C3.53607 33.215 3.53591 33.2154 3.53575 33.2157C3.52689 33.2366 3.52744 33.2549 3.52817 33.2634C3.52899 33.2729 3.531 33.2803 3.53226 33.2843C3.53363 33.2888 3.53506 33.2923 3.53607 33.2947C3.53805 33.2992 3.53996 33.3027 3.54096 33.3044L3.54378 33.3091C3.54607 33.3126 3.54816 33.3154 3.54877 33.3162L3.54879 33.3162L3.55125 33.3193C3.55345 33.322 3.55667 33.3258 3.5602 33.3294L3.56183 33.331L3.57572 33.3479L3.59443 33.3705L3.59922 33.3721L3.72061 33.5066L3.72634 33.3997H16.8552H23.6935C24.2495 33.3997 24.7032 33.8534 24.7032 34.4094V34.657C24.7032 35.213 24.2495 35.6667 23.6935 35.6667H16.8552H3.70122C3.35471 35.6667 3.02505 35.5975 2.71912 35.462Z" fill="#160647" stroke="#160647" stroke-width="0.2"/>
<path d="M24.6522 27.171H25.3732H33.8696H34.5906C35.2139 27.171 35.7239 27.681 35.7239 28.3046C35.7239 28.9281 35.2139 29.4378 34.5906 29.4378H33.8696H25.3732H24.6522C24.0289 29.4378 23.5189 28.9279 23.5189 28.3043C23.5189 27.6807 24.0289 27.171 24.6522 27.171Z" fill="#160647" stroke="#160647" stroke-width="0.2"/>
<path d="M28.4877 33.2737V32.5527V24.0564V23.3353C28.4877 22.712 28.9976 22.2021 29.6212 22.2021C30.2448 22.2021 30.7545 22.712 30.7545 23.3353V24.0564V32.5527V33.2737C30.7545 33.897 30.2445 34.407 29.6209 34.407C28.9974 34.407 28.4877 33.897 28.4877 33.2737Z" fill="#160647" stroke="#160647" stroke-width="0.2"/>
</g>
<defs>
<clipPath id="clip0_3273_1396">
<rect width="37" height="37" fill="white"/>
</clipPath>
</defs>
</svg>
