<svg width="100" height="100" viewBox="0 0 100 100" fill="none" xmlns="http://www.w3.org/2000/svg">
<path d="M16.568 60.8386C4.36059 48.642 4.36135 28.7892 16.5661 16.5833C22.6672 10.4716 30.6936 7.42996 38.695 7.42996C46.707 7.42996 54.7228 10.4719 60.8236 16.583L16.568 60.8386ZM16.568 60.8386C28.7748 73.0444 48.6264 73.0333 60.822 60.8386H16.568ZM73.0872 69.2578L74.855 71.0255L76.6228 69.2578C76.8284 69.0522 77.1617 69.0522 77.3672 69.2578L93.3073 85.1977C93.3073 85.1977 93.3073 85.1977 93.3073 85.1977C95.5381 87.4286 95.5434 91.0747 93.3087 93.3208C92.1361 94.4835 90.5667 95.0864 88.8867 94.99C87.4939 94.91 86.0996 94.2392 84.9818 93.1214L69.2427 77.3823C69.0372 77.1767 69.0372 76.8434 69.2427 76.6378L71.0105 74.87L69.2428 73.1022L62.1228 65.9822L60.5927 64.4522L58.859 65.747C52.9057 70.1934 45.8045 72.4199 38.695 72.4199C29.3646 72.4199 20.0345 68.5842 13.3051 60.9093C2.28465 48.3404 2.25053 29.1987 13.2304 16.596C26.1747 1.73839 48.8358 1.15753 62.5467 14.8572C69.1088 21.4289 72.4049 30.0648 72.4049 38.71C72.4049 45.8194 70.1784 52.9207 65.732 58.874L64.4371 60.6077L65.9672 62.1378L73.0872 69.2578Z" stroke="#160647" stroke-width="5"/>
<path d="M50.521 29.7791H56.0765C56.8782 29.7791 57.5281 30.429 57.5281 31.2307V53.5445C57.5281 54.3462 56.8782 54.9961 56.0765 54.9961H50.521C49.7193 54.9961 49.0693 54.3462 49.0693 53.5445V31.2307C49.0693 30.429 49.7193 29.7791 50.521 29.7791Z" fill="#160647"/>
<path d="M21.313 40.7175H26.8686C27.6703 40.7175 28.3203 41.3675 28.3203 42.1692V53.5446C28.3203 54.3464 27.6703 54.9963 26.8686 54.9963H21.313C20.5112 54.9963 19.8613 54.3464 19.8613 53.5446V42.1692C19.8613 41.3675 20.5112 40.7175 21.313 40.7175Z" fill="#160647"/>
<path d="M35.9223 22.4226H41.468C42.2698 22.4226 42.9197 23.0725 42.9197 23.8742V53.5445C42.9197 54.3462 42.2698 54.9961 41.468 54.9961H35.9223C35.1206 54.9961 34.4707 54.3462 34.4707 53.5445V23.8742C34.4707 23.0725 35.1206 22.4226 35.9223 22.4226Z" fill="#160647"/>
<rect x="76.6035" y="70.981" width="26.051" height="8" transform="rotate(44.2831 76.6035 70.981)" fill="#160647"/>
<rect x="60.6973" y="59" width="26.051" height="2.4305" transform="rotate(44.2831 60.6973 59)" fill="#160647"/>
</svg>
