<svg xmlns="http://www.w3.org/2000/svg" version="1.1" xmlns:xlink="http://www.w3.org/1999/xlink" width="512" height="512" x="0" y="0" viewBox="0 0 32 32" style="enable-background:new 0 0 512 512" xml:space="preserve" class=""><g><path d="m3.59 16.54 11 11a2 2 0 0 0 2.82 0l11-11a2 2 0 0 0-2.82-2.83L16 23.3l-9.59-9.59a2 2 0 1 0-2.82 2.83z" fill="#3a3a3a" opacity="1" data-original="#000000"></path><path d="M14.59 18.29a2 2 0 0 0 2.82 0l11-11a2 2 0 0 0-2.82-2.83L16 14.05 6.41 4.46a2 2 0 0 0-2.82 2.83z" fill="#3a3a3a" opacity="1" data-original="#000000"></path></g></svg>