<svg width="50" height="50" viewBox="0 0 50 50" fill="none" xmlns="http://www.w3.org/2000/svg">
<g clip-path="url(#clip0_3761_9)">
<path d="M16.3437 30.7696C16.5476 30.8547 16.7771 30.8553 16.9815 30.7712C17.1859 30.6871 17.3486 30.5252 17.4336 30.3213L18.6086 27.5005H23.0537L24.2287 30.3213C24.4058 30.7461 24.8939 30.9468 25.3187 30.7697C25.7435 30.5925 25.9442 30.1044 25.767 29.6797L21.6004 19.6797C21.4709 19.3692 21.1676 19.167 20.8312 19.167C20.4949 19.167 20.1915 19.3692 20.0621 19.6797L15.8954 29.6797C15.8103 29.8837 15.8097 30.1131 15.8938 30.3175C15.9779 30.5219 16.1396 30.6845 16.3437 30.7696ZM20.8312 22.1671L22.3587 25.8338H19.3036L20.8312 22.1671Z" fill="#00b3ff"/>
<path fill-rule="evenodd" clip-rule="evenodd" d="M27.4978 29.167C27.0375 29.167 26.6644 29.5401 26.6644 30.0004C26.6644 30.4606 27.0375 30.8337 27.4978 30.8337H32.4978C32.9581 30.8337 33.3311 30.4606 33.3311 30.0004C33.3311 29.5401 32.9581 29.167 32.4978 29.167H30.8311V20.8337H32.4978C32.9581 20.8337 33.3311 20.4606 33.3311 20.0003C33.3311 19.5401 32.9581 19.167 32.4978 19.167H27.4978C27.0375 19.167 26.6644 19.5401 26.6644 20.0003C26.6644 20.4606 27.0375 20.8337 27.4978 20.8337H29.1645V29.167H27.4978Z" fill="#00b3ff"/>
<path d="M0.83109 36.6667C0.83109 38.5076 2.32351 40 4.1644 40C4.58194 39.9984 4.99537 39.9176 5.38273 39.7616C7.35271 41.27 10.1328 42.0567 13.5494 42.0567C14.0644 42.0567 14.5994 42.0325 15.1419 41.9975C17.5619 46.9425 21.0535 50 24.9977 50C28.9419 50 32.4335 46.9425 34.8544 42C35.3977 42.035 35.9319 42.0591 36.4468 42.0591C39.8635 42.0591 42.6435 41.2724 44.6135 39.7641C45.0008 39.919 45.4139 39.9991 45.831 40C47.3023 39.9958 48.5968 39.0275 49.0164 37.6173C49.4359 36.2071 48.8814 34.6886 47.6518 33.8808C47.7684 31.1975 46.7309 28.1524 44.6193 25C46.7309 21.8483 47.7685 18.8033 47.6518 16.1191C49.0925 15.1894 49.5902 13.3168 48.8013 11.7944C48.0124 10.2721 46.1954 9.59897 44.6051 10.2399C42.341 8.50744 38.9976 7.73995 34.8551 8.00994C32.437 3.06086 28.9437 0 24.9978 0C21.0519 0 17.5586 3.06086 15.1378 8.01002C10.9969 7.74167 7.65526 8.50998 5.38773 10.24C3.79845 9.60422 1.9861 10.2783 1.19851 11.7981C0.41093 13.3179 0.905231 15.1873 2.34106 16.1192C2.22607 18.8017 3.26438 21.8467 5.37608 25C3.26438 28.1525 2.22607 31.1975 2.3436 33.8809C1.40109 34.4943 0.832156 35.5422 0.83109 36.6667ZM2.49779 36.6667C2.49779 35.7462 3.24395 35 4.16448 35C5.08501 35 5.83118 35.7461 5.83118 36.6667C5.83118 37.5872 5.08501 38.3334 4.16448 38.3334C3.72243 38.3334 3.29849 38.1578 2.98594 37.8452C2.67338 37.5327 2.49779 37.1087 2.49779 36.6667ZM16.172 9.76669C18.3905 10.0323 20.5761 10.5229 22.6953 11.2309C21.2037 11.8966 19.7471 12.6381 18.3312 13.4526C16.9103 14.2726 15.5339 15.1675 14.2078 16.1334C14.6447 13.95 15.3029 11.8167 16.172 9.76669ZM35.7869 16.1334C34.4613 15.1674 33.0851 14.2725 31.6644 13.4526C30.2506 12.6391 28.7964 11.8976 27.3077 11.2309C29.4248 10.5233 31.6081 10.0327 33.8244 9.76669C34.693 11.8168 35.3505 13.95 35.7869 16.1334ZM33.8236 40.2334C31.6051 39.9678 29.4194 39.4771 27.3003 38.7692C28.7918 38.1035 30.2485 37.362 31.6644 36.5475C33.0853 35.7274 34.4617 34.8326 35.7878 33.8667C35.3509 36.0501 34.6928 38.1833 33.8236 40.2334ZM30.8311 14.8967C32.7104 15.9782 34.5069 17.1974 36.2061 18.5442C36.5126 20.6825 36.6657 22.8399 36.6644 25C36.666 27.1601 36.5131 29.3176 36.2069 31.4559C34.5074 32.8026 32.7106 34.0219 30.8311 35.1034C28.9577 36.187 27.0081 37.1333 24.9978 37.935C22.9874 37.1329 21.0378 36.186 19.1644 35.1017C17.2851 34.0201 15.4886 32.801 13.7894 31.4542C13.1794 27.1719 13.1794 22.8248 13.7894 18.5425C15.4887 17.1963 17.2853 15.9777 19.1644 14.8966C21.0394 13.8122 22.9907 12.8653 25.0028 12.0633C27.0115 12.8657 28.9594 13.8126 30.8311 14.8967ZM38.0811 20.1192C39.7432 21.5906 41.2528 23.2258 42.587 25C41.2547 26.7739 39.747 28.4091 38.087 29.8809C38.2506 28.2591 38.3322 26.6301 38.3312 25C38.3317 23.37 38.2496 21.741 38.0854 20.1192H38.0811ZM11.9144 29.8809C10.2519 28.4099 8.74228 26.7746 7.40856 25C8.74089 23.2262 10.2485 21.5909 11.9085 20.1192C11.5807 23.3648 11.5807 26.6352 11.9085 29.8809H11.9144ZM18.3361 36.5475C19.7499 37.361 21.204 38.1025 22.6928 38.7692C20.5757 39.4768 18.3923 39.9673 16.1761 40.2334C15.3072 38.1833 14.6494 36.0501 14.2127 33.8667C15.5371 34.8326 16.9118 35.7274 18.3311 36.5475H18.3361ZM24.9978 48.3334C21.8678 48.3334 19.0236 45.8509 16.9261 41.8242C19.6879 41.4327 22.396 40.727 24.9978 39.7209C27.6005 40.7275 30.3098 41.4331 33.0728 41.8242C30.9711 45.8509 28.1278 48.3334 24.9978 48.3334ZM45.8312 38.3334C44.9107 38.3334 44.1645 37.5872 44.1645 36.6667C44.1645 35.7461 44.9106 35 45.8312 35C46.7517 35 47.4979 35.7461 47.4979 36.6667C47.4979 37.5872 46.7516 38.3334 45.8312 38.3334ZM46.0061 33.3508C45.947 33.3508 45.8911 33.3334 45.8311 33.3334C43.9901 33.3334 42.4978 34.8258 42.4978 36.6667C42.5009 37.4119 42.7561 38.1341 43.222 38.7158C41.407 39.9133 38.7577 40.4825 35.5844 40.3633C36.6177 37.7821 37.35 35.0904 37.7669 32.3416C39.9224 30.6061 41.873 28.6305 43.5811 26.4533C44.9881 28.4962 45.8253 30.877 46.0061 33.3508ZM47.4978 13.3333C47.4978 14.2538 46.7516 15 45.8311 15C44.9105 15 44.1644 14.2539 44.1644 13.3333C44.1644 12.4128 44.9105 11.6666 45.8311 11.6666C46.7516 11.6666 47.4978 12.4129 47.4978 13.3333ZM43.222 11.2842C42.7562 11.8659 42.501 12.5881 42.4978 13.3333C42.4978 15.1743 43.9902 16.6666 45.8311 16.6666C45.8911 16.6666 45.9469 16.6525 46.0061 16.6492C45.8254 19.1231 44.9884 21.504 43.5811 23.5467C41.8727 21.3694 39.9218 19.3939 37.7661 17.6584C37.3486 14.9094 36.6154 12.2177 35.5811 9.63669C38.757 9.51671 41.4078 10.0833 43.222 11.2842ZM24.9978 1.6667C28.1278 1.6667 30.972 4.14919 33.0695 8.17585C30.309 8.56772 27.6023 9.27337 25.002 10.2792C22.3992 9.27263 19.69 8.56698 16.927 8.17585C19.0244 4.14919 21.8678 1.6667 24.9978 1.6667ZM4.1644 11.6667C5.08485 11.6667 5.8311 12.4129 5.8311 13.3334C5.8311 14.2539 5.08493 15.0001 4.1644 15.0001C3.24387 15.0001 2.4977 14.2539 2.4977 13.3334C2.4977 12.4129 3.24395 11.6667 4.1644 11.6667ZM3.98946 16.6492C4.0486 16.6492 4.10445 16.6666 4.16448 16.6666C6.00546 16.6666 7.49779 15.1742 7.49779 13.3333C7.49468 12.5881 7.23945 11.8658 6.77361 11.2842C8.58777 10.0867 11.2369 9.51835 14.4111 9.63669C13.378 12.2178 12.6456 14.9096 12.2286 17.6584C10.0735 19.3939 8.12283 21.3691 6.41447 23.5458C5.00693 21.5036 4.16981 19.1229 3.98946 16.6492ZM6.41447 26.4542C8.12365 28.6307 10.0748 30.606 12.2303 32.3416C12.6477 35.0908 13.3806 37.7828 14.4145 40.3641C11.2428 40.4841 8.59195 39.9133 6.77697 38.7158C7.24158 38.1337 7.49558 37.4114 7.49779 36.6667C7.49779 34.8257 6.00538 33.3334 4.16448 33.3334C4.10445 33.3334 4.04868 33.3484 3.98946 33.3508C4.17014 30.8772 5.00718 28.4966 6.41447 26.4542Z" fill="#00b3ff"/>
</g>
<defs>
<clipPath id="clip0_3761_9">
<rect width="50" height="50" fill="white"/>
</clipPath>
</defs>
</svg>
