<svg width="33" height="33" viewBox="0 0 33 33" fill="none" xmlns="http://www.w3.org/2000/svg">
<path d="M11.3938 1H3.60623C2.15323 1 1 2.19107 1 3.62969V13.3703C1 14.809 2.15324 16 3.60623 16H11.3938C12.8468 16 14 14.809 14 13.3703V3.62969C14 2.19108 12.8468 1 11.3938 1Z" stroke="#160647" stroke-width="2" stroke-linecap="round" stroke-linejoin="round"/>
<path d="M29.2477 1H20.7523C19.2322 1 18 2.2323 18 3.75234V6.24766C18 7.76774 19.2322 9 20.7523 9H29.2477C30.7678 9 32 7.76772 32 6.24766V3.75234C32 2.23232 30.7679 1 29.2477 1Z" stroke="#160647" stroke-width="2" stroke-linecap="round" stroke-linejoin="round"/>
<path d="M29.2477 13H20.7523C19.2869 13 18 14.1354 18 15.6548V29.3452C18 30.8646 19.2869 32 20.7523 32H29.2477C30.7131 32 32 30.8645 32 29.3452V15.6548C32 14.1355 30.7131 13 29.2477 13Z" stroke="#160647" stroke-width="2" stroke-linecap="round" stroke-linejoin="round"/>
<path d="M11.3938 20H3.60623C2.08674 20 1 21.3159 1 22.7522V29.2478C1 30.6841 2.08672 32 3.60623 32H11.3938C12.9133 32 14 30.6841 14 29.2478V22.7522C14 21.3159 12.9133 20 11.3938 20Z" stroke="#160647" stroke-width="2" stroke-linecap="round" stroke-linejoin="round"/>
</svg>
