<svg id="Layer_1" enable-background="new 0 0 60 60" height="60" viewBox="0 0 60 60" width="60" xmlns="http://www.w3.org/2000/svg"><g style="fill:none;stroke:#231f20;stroke-width:1.5;stroke-linecap:round;stroke-linejoin:round;stroke-miterlimit:10"><g><path d="m28.679 32.533.01-16.729c0-1.476-1.354-2.83-3.026-2.83h-.168c-1.673 0-3.026 1.354-3.026 3.026v22.427c-.883-1.077-5.79-6.983-7.994-5.318s-.783 3.673-.783 3.673c2.019 3.624 6.637 11.198 7.883 13.329 2.387 4.08 6.713 6.806 11.652 6.806 7.519 0 13.614-6.316 13.614-14.109v-.511-11.995c0-1.536-1.245-2.977-2.78-2.977h-.155c-1.536 0-2.78 1.44-2.78 2.977"/><path d="m28.679 26.824c0-1.672 1.354-3.027 3.026-3.027h.168c1.672 0 3.026 1.355 3.026 3.027v5.709"/><path d="m34.901 28.731c0-1.672 1.355-3.224 3.027-3.224h.168c1.672 0 3.027 1.552 3.027 3.224v3.802"/></g><path d="m18.661 18.902c-.539-1.06-.842-2.258-.842-3.526 0-4.304 3.488-7.792 7.792-7.792s7.792 3.488 7.792 7.792c0 1.427-.383 2.764-1.053 3.914"/><path d="m14.505 21.17c-.861-1.693-1.345-3.608-1.345-5.636 0-6.877 5.574-12.451 12.451-12.451s12.451 5.574 12.451 12.451c0 2.28-.611 4.417-1.683 6.255"/></g></svg>