<?xml version="1.0" encoding="UTF-8"?>
<svg xmlns="http://www.w3.org/2000/svg" xmlns:xlink="http://www.w3.org/1999/xlink" version="1.1" id="Capa_1" x="0px" y="0px" viewBox="0 0 512 512" style="enable-background:new 0 0 512 512;" xml:space="preserve" width="512" height="512">
<g>
	<path style="fill:none;stroke:#000000;stroke-width:15;stroke-linecap:round;stroke-linejoin:round;stroke-miterlimit:10;" d="&#10;&#9;&#9;M214.226,327.75h143.548v44.969c0,13.364,16.157,20.057,25.607,10.607l116.725-116.719c5.858-5.858,5.858-15.356,0-21.214&#10;&#9;&#9;l-116.725-116.72c-9.45-9.449-25.607-2.757-25.607,10.607v44.969h-30"/>
	<path style="fill:none;stroke:#000000;stroke-width:15;stroke-linecap:round;stroke-linejoin:round;stroke-miterlimit:10;" d="&#10;&#9;&#9;M297.774,184.25H154.226v-44.969c0-13.364-16.157-20.057-25.607-10.607L11.894,245.393c-5.858,5.858-5.858,15.356,0,21.214&#10;&#9;&#9;l116.725,116.719c9.45,9.449,25.607,2.757,25.607-10.607V327.75h30"/>
</g>















</svg>
