<svg id="Capa_1" enable-background="new 0 0 512 512" height="512" viewBox="0 0 512 512" width="512" xmlns="http://www.w3.org/2000/svg"><g><path d="m125.57 214.797c-.877-4.057-4.873-6.631-8.935-5.757-4.057.877-6.634 4.877-5.757 8.934 7.059 32.639 25.273 62.31 51.287 83.547 26.387 21.542 59.711 33.405 93.835 33.405 81.87 0 148.477-66.606 148.477-148.477s-66.606-148.477-148.477-148.477-148.477 66.606-148.477 148.477c0 4.151 3.365 7.516 7.516 7.516s7.515-3.365 7.515-7.516c0-73.583 59.863-133.446 133.446-133.446 73.582 0 133.446 59.863 133.446 133.446s-59.864 133.446-133.446 133.446c-30.67 0-60.619-10.66-84.33-30.018-23.386-19.092-39.759-45.756-46.1-75.08z"/><path d="m335.504 186.494c6.014-5.863 8.139-14.468 5.543-22.457-2.595-7.988-9.372-13.701-17.684-14.908l-29.397-4.271c-2.239-.325-4.175-1.732-5.176-3.761l-13.146-26.638c-3.718-7.532-11.244-12.211-19.644-12.211-8.399 0-15.926 4.679-19.644 12.211l-13.146 26.638c-1.002 2.029-2.937 3.435-5.176 3.761l-29.397 4.271c-8.312 1.208-15.087 6.92-17.684 14.908-2.596 7.988-.472 16.593 5.543 22.457l21.271 20.734c1.62 1.58 2.36 3.855 1.977 6.085l-5.022 29.277c-1.42 8.279 1.92 16.488 8.714 21.426 3.84 2.79 8.332 4.207 12.856 4.207 3.481 0 6.981-.84 10.215-2.539l26.293-13.823c2.004-1.053 4.396-1.053 6.398 0l26.294 13.823c7.435 3.91 16.276 3.269 23.069-1.667 6.795-4.937 10.134-13.147 8.714-21.425l-5.021-29.279c-.383-2.23.356-4.505 1.978-6.084zm-31.763 9.971c-5.165 5.034-7.52 12.284-6.299 19.39l5.02 29.277c.453 2.638-.569 5.151-2.734 6.724s-4.871 1.769-7.241.523l-26.292-13.823c-3.192-1.678-6.693-2.516-10.194-2.516s-7.002.839-10.194 2.516l-26.293 13.823c-2.369 1.246-5.075 1.05-7.24-.523s-3.187-4.086-2.735-6.724l5.022-29.278c1.219-7.108-1.137-14.356-6.301-19.39l-21.271-20.734c-1.917-1.868-2.567-4.503-1.739-7.048.827-2.545 2.901-4.294 5.55-4.679l29.397-4.271c7.136-1.037 13.302-5.517 16.494-11.983l13.146-26.637c1.184-2.4 3.489-3.832 6.165-3.832s4.98 1.433 6.165 3.832l13.146 26.637c3.191 6.467 9.357 10.947 16.494 11.984l29.397 4.271c2.648.385 4.723 2.134 5.549 4.679.827 2.545.177 5.18-1.74 7.048z"/><path d="m397.573 398.801c-1.363-3.92-5.643-5.993-9.569-4.627-3.919 1.364-5.991 5.648-4.627 9.568l18.873 54.223-51.527-5.396c-2.22-.229-4.438.537-6.038 2.102l-37.041 36.223-41.174-118.295c35.041-1.949 67.527-13.62 94.807-32.352l12.21 35.08c1.079 3.103 3.988 5.047 7.098 5.047.819 0 1.653-.135 2.471-.42 3.919-1.364 5.991-5.648 4.627-9.568l-13.785-39.606c41.815-34.22 68.552-86.209 68.552-144.33 0-23.874-4.451-47.126-13.229-69.109-1.539-3.856-5.913-5.731-9.766-4.193-3.855 1.539-5.732 5.912-4.192 9.767 8.066 20.202 12.157 41.579 12.157 63.535 0 94.52-76.897 171.418-171.418 171.418-94.52 0-171.418-76.898-171.418-171.418s76.896-171.419 171.416-171.419c29.9 0 59.332 7.811 85.112 22.588 25.017 14.339 46.196 34.929 61.246 59.542 2.166 3.542 6.792 4.656 10.332 2.492 3.542-2.165 4.657-6.791 2.492-10.332-16.363-26.763-39.391-49.151-66.595-64.743-28.053-16.079-60.068-24.578-92.587-24.578-102.808 0-186.449 83.641-186.449 186.449 0 58.122 26.737 110.111 68.552 144.331l-46.439 133.422c-1.7 4.411 2.198 10.651 7.881 9.945l59.786-6.26 42.979 42.029c3.298 3.48 10.532 2.526 12.352-2.903l41.338-118.768 41.338 118.768c1.586 4.729 8.111 6.894 12.353 2.903l42.978-42.029 59.787 6.26c4.962.63 9.664-4.542 7.88-9.945zm-193.216 92.093-37.042-36.223c-1.6-1.564-3.809-2.331-6.037-2.101l-51.527 5.395 40.973-117.718c27.28 18.733 59.766 30.403 94.807 32.352z"/></g></svg>