<svg width="50" height="50" viewBox="0 0 50 50" fill="none" xmlns="http://www.w3.org/2000/svg">
<g clip-path="url(#clip0_130_17)">
<path d="M37.5 15.625H10.9375C10.5231 15.625 10.1257 15.4604 9.83264 15.1673C9.53961 14.8743 9.375 14.4769 9.375 14.0625C9.375 13.6481 9.53961 13.2507 9.83264 12.9576C10.1257 12.6646 10.5231 12.5 10.9375 12.5H37.5C37.9144 12.5 38.3119 12.6646 38.6049 12.9576C38.8979 13.2507 39.0626 13.6481 39.0626 14.0625C39.0626 14.4769 38.8979 14.8743 38.6049 15.1673C38.3119 15.4604 37.9144 15.625 37.5 15.625Z" fill="#160647"/>
<path d="M37.5 39.0626H29.6874C29.2731 39.0626 28.8757 38.8979 28.5827 38.6049C28.2896 38.3119 28.125 37.9145 28.125 37.5001C28.125 37.0856 28.2896 36.6882 28.5827 36.3952C28.8757 36.1022 29.2731 35.9375 29.6874 35.9375H37.5C37.9144 35.9375 38.3119 36.1022 38.6049 36.3952C38.8979 36.6882 39.0626 37.0856 39.0626 37.5001C39.0626 37.9145 38.8979 38.3119 38.6049 38.6049C38.3119 38.8979 37.9144 39.0626 37.5 39.0626Z" fill="#160647"/>
<path d="M28.125 23.4374H10.9375C10.5231 23.4374 10.1257 23.2728 9.83264 22.9798C9.53961 22.6868 9.375 22.2894 9.375 21.8749C9.375 21.4605 9.53961 21.0631 9.83264 20.7701C10.1257 20.4771 10.5231 20.3125 10.9375 20.3125H28.125C28.5394 20.3125 28.9369 20.4771 29.2299 20.7701C29.5229 21.0631 29.6874 21.4605 29.6874 21.8749C29.6874 22.2894 29.5229 22.6868 29.2299 22.9798C28.9369 23.2728 28.5394 23.4374 28.125 23.4374Z" fill="#160647"/>
<path d="M37.033 31.6963H20.1099C19.7019 31.6963 19.3106 31.5317 19.022 31.2386C18.7336 30.9456 18.5714 30.5481 18.5714 30.1339C18.5714 29.7194 18.7336 29.322 19.022 29.029C19.3106 28.7359 19.7019 28.5713 20.1099 28.5713H37.033C37.441 28.5713 37.8323 28.7359 38.1209 29.029C38.4093 29.322 38.5714 29.7194 38.5714 30.1339C38.5714 30.5481 38.4093 30.9456 38.1209 31.2386C37.8323 31.5317 37.441 31.6963 37.033 31.6963Z" fill="#160647"/>
<path d="M37.5 23.4374H32.8126C32.3981 23.4374 32.0007 23.2728 31.7077 22.9798C31.4146 22.6868 31.25 22.2894 31.25 21.8749C31.25 21.4605 31.4146 21.0631 31.7077 20.7701C32.0007 20.4771 32.3981 20.3125 32.8126 20.3125H37.5C37.9144 20.3125 38.3119 20.4771 38.6049 20.7701C38.8979 21.0631 39.0626 21.4605 39.0626 21.8749C39.0626 22.2894 38.8979 22.6868 38.6049 22.9798C38.3119 23.2728 37.9144 23.4374 37.5 23.4374Z" fill="#160647"/>
<path d="M11.9071 37.2286V38.6067M11.9071 27.6367V29.0149M15.2427 30.5103C15.2427 29.7351 14.611 29.1036 13.8359 29.1036H9.97827C9.20308 29.1036 8.57144 29.7351 8.57144 30.5103V31.758C8.57144 32.5331 9.20308 33.1647 9.97827 33.1647H12.4108H13.8359C14.611 33.1647 15.2427 33.799 15.2427 34.5716V35.8217C15.2427 36.5943 14.611 37.2286 13.8359 37.2286H9.97827C9.20576 37.2286 8.57144 36.5943 8.57144 35.8217" stroke="#160647" stroke-width="1.3" stroke-miterlimit="10" stroke-linecap="round" stroke-linejoin="round"/>
<path d="M46.6979 1.42871H3.29919C2.26607 1.42871 1.42856 2.3881 1.42856 3.57157V46.4287C1.42856 47.6122 2.26607 48.5716 3.29919 48.5716H46.6979C47.731 48.5716 48.5686 47.6122 48.5686 46.4287V3.57157C48.5686 2.3881 47.731 1.42871 46.6979 1.42871Z" stroke="#160647" stroke-width="2.5"/>
</g>
<defs>
<clipPath id="clip0_130_17">
<rect width="50" height="50" fill="white"/>
</clipPath>
</defs>
</svg>
