<svg xmlns="http://www.w3.org/2000/svg" xmlns:xlink="http://www.w3.org/1999/xlink" width="1080" zoomAndPan="magnify" viewBox="0 0 810 809.999993" height="1080" preserveAspectRatio="xMidYMid meet" version="1.0"><rect x="-81" width="972" fill="#ffffff" y="-80.999999" height="971.999992" fill-opacity="1"/><rect x="-81" width="972" fill="#ffffff" y="-80.999999" height="971.999992" fill-opacity="1"/><path fill="#596b93" d="M 436.648438 447.175781 C 440.65625 447.175781 444.40625 445.59375 447.207031 442.722656 L 472.085938 417.21875 C 477.761719 411.398438 477.644531 402.042969 471.820312 396.363281 C 466 390.6875 456.640625 390.804688 450.964844 396.625 L 436.371094 411.585938 L 433.816406 409.101562 C 427.984375 403.433594 418.628906 403.5625 412.957031 409.394531 C 407.289062 415.222656 407.417969 424.578125 413.25 430.25 L 426.363281 443 C 429.132812 445.691406 432.785156 447.175781 436.648438 447.175781 Z M 419.777344 416.023438 C 421.792969 413.953125 425.117188 413.910156 427.183594 415.921875 L 433.144531 421.71875 C 435.027344 423.546875 438.03125 423.503906 439.867188 421.628906 L 457.773438 403.265625 C 459.792969 401.199219 463.113281 401.160156 465.179688 403.171875 C 467.25 405.191406 467.289062 408.511719 465.273438 410.582031 L 440.398438 436.085938 C 438.476562 438.140625 434.972656 438.183594 432.996094 436.183594 L 419.878906 423.429688 C 417.8125 421.417969 417.761719 418.09375 419.777344 416.023438 Z M 419.777344 416.023438 " fill-opacity="1" fill-rule="nonzero"/><path fill="#596b93" d="M 399.882812 450.414062 C 398.300781 448.316406 395.320312 447.898438 393.222656 449.480469 C 391.125 451.0625 390.707031 454.042969 392.289062 456.140625 C 394.023438 458.4375 395.9375 460.636719 397.984375 462.683594 C 409.675781 474.375 425.226562 480.8125 441.761719 480.8125 C 458.300781 480.8125 473.847656 474.375 485.539062 462.683594 C 497.234375 450.992188 503.671875 435.445312 503.671875 418.910156 C 503.671875 402.375 497.234375 386.828125 485.539062 375.136719 C 461.398438 351 422.125 351.003906 397.984375 375.136719 C 381.527344 391.59375 375.703125 415.597656 382.785156 437.785156 C 383.582031 440.285156 386.261719 441.664062 388.761719 440.867188 C 391.265625 440.070312 392.644531 437.394531 391.847656 434.890625 C 385.851562 416.109375 390.78125 395.792969 404.710938 381.863281 C 425.140625 361.433594 458.382812 361.433594 478.8125 381.863281 C 488.710938 391.757812 494.160156 404.914062 494.160156 418.910156 C 494.160156 432.90625 488.710938 446.0625 478.8125 455.957031 C 468.917969 465.851562 455.757812 471.304688 441.761719 471.304688 C 427.765625 471.304688 414.605469 465.855469 404.710938 455.957031 C 402.972656 454.222656 401.351562 452.355469 399.882812 450.414062 Z M 399.882812 450.414062 " fill-opacity="1" fill-rule="nonzero"/><path fill="#596b93" d="M 560.457031 505.789062 L 530.453125 475.789062 C 528.59375 473.929688 525.582031 473.929688 523.726562 475.789062 L 523.542969 475.972656 L 511.996094 464.425781 C 519.757812 452.460938 524.382812 438.632812 525.292969 424.203125 C 525.457031 421.582031 523.464844 419.324219 520.84375 419.15625 C 518.226562 419 515.964844 420.984375 515.796875 423.605469 C 514.660156 441.621094 506.996094 458.578125 494.21875 471.359375 C 479.773438 485.800781 460.808594 493.03125 441.835938 493.046875 C 441.808594 493.046875 441.785156 493.042969 441.761719 493.042969 L 441.382812 493.042969 C 422.515625 492.949219 403.671875 485.722656 389.304688 471.359375 C 375.292969 457.347656 367.578125 438.722656 367.578125 418.910156 C 367.578125 399.097656 375.292969 380.46875 389.304688 366.460938 C 418.230469 337.539062 465.292969 337.539062 494.21875 366.460938 C 504.992188 377.230469 512.101562 390.820312 514.777344 405.753906 C 515.242188 408.339844 517.714844 410.058594 520.296875 409.597656 C 522.882812 409.132812 524.601562 406.660156 524.140625 404.074219 C 521.117188 387.21875 513.097656 371.886719 500.945312 359.734375 C 494.921875 353.714844 488.203125 348.808594 481.042969 345.007812 L 481.042969 306.683594 C 481.039062 305.429688 480.53125 304.203125 479.648438 303.320312 L 420.714844 244.394531 C 419.828125 243.511719 418.605469 243.003906 417.351562 243 L 257.269531 243 C 249.402344 243 243 249.398438 243 257.265625 L 243 297.238281 C 243 299.863281 245.128906 301.992188 247.757812 301.992188 C 250.382812 301.992188 252.511719 299.863281 252.511719 297.238281 L 252.511719 257.265625 C 252.511719 254.644531 254.644531 252.511719 257.269531 252.511719 L 412.597656 252.511719 L 412.597656 297.171875 C 412.597656 305.039062 419 311.4375 426.867188 311.4375 L 471.53125 311.4375 L 471.53125 340.703125 C 462.253906 337.1875 452.46875 335.378906 442.671875 335.273438 C 442.625 335.269531 442.578125 335.257812 442.527344 335.257812 L 336.34375 335.257812 C 333.714844 335.257812 331.585938 337.386719 331.585938 340.015625 C 331.585938 342.640625 333.714844 344.769531 336.34375 344.769531 L 402.929688 344.769531 C 396.148438 348.316406 389.75 352.859375 383.960938 358.390625 L 336.34375 358.390625 C 333.714844 358.390625 331.585938 360.519531 331.585938 363.144531 C 331.585938 365.773438 333.714844 367.902344 336.34375 367.902344 L 375.398438 367.902344 C 367.636719 377.957031 362.332031 389.539062 359.792969 401.902344 L 336.34375 401.902344 C 333.714844 401.902344 331.585938 404.03125 331.585938 406.660156 C 331.585938 409.285156 333.714844 411.414062 336.34375 411.414062 L 358.402344 411.414062 C 358.183594 413.894531 358.066406 416.390625 358.066406 418.910156 C 358.066406 420.976562 358.144531 423.03125 358.289062 425.070312 L 336.34375 425.070312 C 333.71875 425.070312 331.589844 427.199219 331.589844 429.824219 C 331.589844 432.453125 333.71875 434.582031 336.34375 434.582031 L 359.53125 434.582031 C 361.957031 447.453125 367.363281 459.515625 375.414062 469.9375 L 336.34375 469.9375 C 333.71875 469.9375 331.589844 472.066406 331.589844 474.691406 C 331.589844 477.320312 333.71875 479.449219 336.34375 479.449219 L 383.980469 479.449219 C 389.761719 484.96875 396.148438 489.503906 402.917969 493.046875 L 336.339844 493.046875 C 333.714844 493.046875 331.585938 495.175781 331.585938 497.800781 C 331.585938 500.429688 333.714844 502.558594 336.339844 502.558594 L 441.761719 502.558594 C 451.863281 502.554688 461.964844 500.742188 471.53125 497.117188 L 471.53125 552.738281 C 471.53125 555.359375 469.398438 557.492188 466.773438 557.492188 L 257.269531 557.492188 C 254.644531 557.492188 252.511719 555.359375 252.511719 552.738281 L 252.511719 316.261719 C 252.511719 313.632812 250.382812 311.503906 247.753906 311.503906 C 245.128906 311.503906 243 313.632812 243 316.261719 L 243 552.738281 C 243 560.601562 249.402344 567 257.269531 567 L 466.773438 567 C 474.640625 567 481.042969 560.601562 481.042969 552.734375 L 481.042969 492.808594 C 483.164062 491.683594 485.25 490.457031 487.285156 489.136719 L 498.832031 500.679688 C 496.832031 502.421875 496.726562 505.746094 498.648438 507.585938 L 528.652344 537.589844 C 537.023438 546.3125 552.085938 546.3125 560.457031 537.589844 C 569.179688 529.21875 569.179688 514.15625 560.457031 505.789062 Z M 426.863281 301.925781 C 424.242188 301.925781 422.109375 299.792969 422.109375 297.171875 L 422.109375 259.234375 L 464.804688 301.925781 Z M 495.046875 483.441406 C 497.074219 481.765625 499.046875 479.980469 500.945312 478.082031 C 502.832031 476.195312 504.617188 474.226562 506.300781 472.1875 L 516.816406 482.695312 L 505.558594 493.953125 Z M 553.730469 530.863281 C 548.902344 535.898438 540.210938 535.894531 535.378906 530.863281 L 508.734375 504.222656 L 527.089844 485.875 L 553.730469 512.511719 C 558.765625 517.34375 558.765625 526.035156 553.730469 530.863281 Z M 553.730469 530.863281 " fill-opacity="1" fill-rule="nonzero"/><path fill="#596b93" d="M 286.160156 372.601562 L 306.96875 372.601562 C 312.832031 372.601562 317.605469 367.832031 317.605469 361.964844 L 317.605469 341.160156 C 317.605469 335.296875 312.835938 330.523438 306.96875 330.523438 L 286.160156 330.523438 C 280.292969 330.523438 275.523438 335.296875 275.523438 341.160156 L 275.523438 361.964844 C 275.523438 367.832031 280.292969 372.601562 286.160156 372.601562 Z M 285.035156 341.160156 C 285.035156 340.539062 285.539062 340.035156 286.160156 340.035156 L 306.96875 340.035156 C 307.589844 340.035156 308.09375 340.539062 308.09375 341.160156 L 308.09375 361.964844 C 308.09375 362.585938 307.589844 363.089844 306.96875 363.089844 L 286.160156 363.089844 C 285.539062 363.089844 285.035156 362.585938 285.035156 361.964844 Z M 285.035156 341.160156 " fill-opacity="1" fill-rule="nonzero"/><path fill="#596b93" d="M 275.523438 428.644531 C 275.523438 434.507812 280.292969 439.28125 286.160156 439.28125 L 306.96875 439.28125 C 312.832031 439.28125 317.605469 434.507812 317.605469 428.644531 L 317.605469 407.839844 C 317.605469 401.972656 312.835938 397.203125 306.96875 397.203125 L 286.160156 397.203125 C 280.292969 397.203125 275.523438 401.972656 275.523438 407.839844 Z M 285.035156 407.839844 C 285.035156 407.21875 285.539062 406.714844 286.160156 406.714844 L 306.96875 406.714844 C 307.589844 406.714844 308.09375 407.21875 308.09375 407.839844 L 308.09375 428.644531 C 308.09375 429.265625 307.589844 429.769531 306.96875 429.769531 L 286.160156 429.769531 C 285.539062 429.769531 285.035156 429.265625 285.035156 428.644531 Z M 285.035156 407.839844 " fill-opacity="1" fill-rule="nonzero"/><path fill="#596b93" d="M 275.523438 496.675781 C 275.523438 502.539062 280.292969 507.3125 286.160156 507.3125 L 306.96875 507.3125 C 312.832031 507.3125 317.605469 502.539062 317.605469 496.675781 L 317.605469 475.871094 C 317.605469 470.003906 312.835938 465.234375 306.96875 465.234375 L 286.160156 465.234375 C 280.292969 465.234375 275.523438 470.003906 275.523438 475.871094 Z M 285.035156 475.871094 C 285.035156 475.25 285.539062 474.746094 286.160156 474.746094 L 306.96875 474.746094 C 307.589844 474.746094 308.09375 475.25 308.09375 475.871094 L 308.09375 496.675781 C 308.09375 497.296875 307.589844 497.800781 306.96875 497.800781 L 286.160156 497.800781 C 285.539062 497.800781 285.035156 497.296875 285.035156 496.675781 Z M 285.035156 475.871094 " fill-opacity="1" fill-rule="nonzero"/></svg>