<?xml version="1.0" encoding="UTF-8"?>
<svg xmlns="http://www.w3.org/2000/svg" viewBox="0 0 64 64" width="512" height="512">
  <g id="Layer_32" data-name="Layer 32" fill="#596b93">
    <path d="M54,14a1,1,0,0,0-1-1H47a1,1,0,0,0-1,1V37H42V26a1,1,0,0,0-1-1H35a1,1,0,0,0-1,1V37H30V18a1,1,0,0,0-1-1H23a1,1,0,0,0-1,1V37H18V23a1,1,0,0,0-1-1H11a1,1,0,0,0-1,1V37H1v2H7v4a1,1,0,0,0,1,1h2.854a21.829,21.829,0,0,0,1.952,4.709l-2.019,2.019a1,1,0,0,0,0,1.414l7.071,7.071a1,1,0,0,0,1.414,0l2.019-2.019A21.8,21.8,0,0,0,26,59.146V62a1,1,0,0,0,1,1H37a1,1,0,0,0,1-1V59.146a21.8,21.8,0,0,0,4.709-1.952l2.019,2.019a1,1,0,0,0,1.414,0l7.071-7.071a1,1,0,0,0,0-1.414l-2.019-2.019A21.829,21.829,0,0,0,53.146,44H56a1,1,0,0,0,1-1V39h6V37H54Zm-6,1h4V37H48ZM44.949,39a12.987,12.987,0,0,1-25.9,0ZM36,27h4V37H36ZM24,19h4V37H24ZM12,24h4V37H12ZM55,42H52.376a1,1,0,0,0-.971.763,19.851,19.851,0,0,1-2.318,5.59,1,1,0,0,0,.148,1.225l1.857,1.857-5.657,5.657-1.857-1.857a1,1,0,0,0-1.226-.147,19.793,19.793,0,0,1-5.59,2.316,1,1,0,0,0-.762.972V61H28V58.376a1,1,0,0,0-.762-.972,19.793,19.793,0,0,1-5.59-2.316,1,1,0,0,0-1.226.147l-1.857,1.857-5.657-5.657,1.857-1.857a1,1,0,0,0,.148-1.225,19.851,19.851,0,0,1-2.318-5.59A1,1,0,0,0,11.624,42H9V39h8.051a14.981,14.981,0,0,0,29.9,0H55Z" />
    <path d="M52,9V2a1,1,0,0,0-1-1H44V3h4.707L37.88,14.66,26.6,6.2a1,1,0,0,0-1.246.036l-13,11,1.292,1.528L26.038,8.278,37.4,16.8a1,1,0,0,0,1.333-.119L50,4.547V9Z" />
  </g>
</svg>
