<svg id="Layer_1" enable-background="new 0 0 450 450" height="512" viewBox="0 0 450 450" width="512" xmlns="http://www.w3.org/2000/svg"><g><path d="m213.3 370.1c-1.3 0-2.6-.5-3.5-1.5l-46.4-46.4c-2-2-2-5.1 0-7.1s5.1-2 7.1 0l42.8 42.8 151.1-150.9c22-22 37.3-49.8 44.2-80.2l24.8-110.2-110.2 24.8c-30.4 6.9-58.1 22.1-80.2 44.2l-151 151.1 42.8 42.8c2 2 2 5.1 0 7.1s-5.1 2-7.1 0l-46.4-46.4c-2-2-2-5.1 0-7.1l154.7-154.6c23.3-23.3 52.7-39.5 85-46.8l117.9-26.6c1.7-.4 3.4.1 4.6 1.3s1.7 3 1.3 4.6l-26.5 118c-7.3 32.3-23.5 61.7-46.9 85.1l-154.5 154.5c-1 1-2.3 1.5-3.6 1.5z"/><path d="m411.5 140.4c-1.3 0-2.6-.5-3.5-1.5l-97-97c-2-2-2-5.1 0-7.1s5.1-2 7.1 0l97 97c2 2 2 5.1 0 7.1-1 1.1-2.3 1.5-3.6 1.5z"/><path d="m290.7 207.1c-12.8 0-24.8-5-33.8-14-18.6-18.6-18.6-49 0-67.6 9-9 21-14 33.8-14s24.8 5 33.8 14c18.6 18.6 18.6 49 0 67.6-9 9-21 14-33.8 14zm0-85.7c-10.1 0-19.6 3.9-26.7 11.1-14.7 14.8-14.7 38.7 0 53.5 7.1 7.1 16.6 11.1 26.7 11.1s19.6-3.9 26.8-11.1c14.7-14.8 14.7-38.7 0-53.5-7.2-7.1-16.7-11.1-26.8-11.1z"/><path d="m126.8 353.4c-7.7 0-15.5-2.9-21.4-8.8-5.7-5.7-8.9-13.3-8.9-21.4s3.1-15.7 8.9-21.4l73.7-73.7c11.8-11.8 31-11.8 42.8 0s11.8 31 0 42.8l-73.7 73.7c-5.9 5.8-13.6 8.8-21.4 8.8zm-14.3-15.9c7.9 7.9 20.7 7.9 28.6 0l73.7-73.7c7.9-7.9 7.9-20.7 0-28.6s-20.7-7.9-28.6 0l-73.7 73.7c-3.8 3.8-5.9 8.9-5.9 14.3s2.1 10.4 5.9 14.3z"/><path d="m84.9 241.7h-74.9c-2 0-3.8-1.2-4.6-3.1s-.3-4 1.1-5.4l14.5-14.7c17.3-17.3 37.6-30.9 60.3-40.3 22.6-9.4 46.6-14.1 71.1-14.1 2.8 0 5 2.2 5 5s-2.2 5-5 5c-46.9 0-91.1 18.3-124.3 51.5l-6 6h62.8c2.8 0 5 2.2 5 5s-2.2 5.1-5 5.1z"/><path d="m213.3 445c-.6 0-1.3-.1-1.9-.4-1.9-.8-3.1-2.6-3.1-4.6v-74.9c0-2.8 2.2-5 5-5s5 2.2 5 5v62.8l6-6c33.2-33.2 51.5-77.4 51.5-124.3 0-2.8 2.2-5 5-5s5 2.2 5 5c0 24.5-4.8 48.4-14.1 71.1-9.4 22.7-22.9 42.9-40.3 60.3l-14.6 14.6c-.9.9-2.2 1.4-3.5 1.4z"/><path d="m18 330.5c-1.3 0-2.6-.5-3.5-1.5-2-2-2-5.1 0-7.1l46-46c2-2 5.1-2 7.1 0s2 5.1 0 7.1l-46 46c-1.1 1-2.3 1.5-3.6 1.5z"/><path d="m19.1 382.6c-1.3 0-2.6-.5-3.5-1.5-2-2-2-5.1 0-7.1l46-46c2-2 5.1-2 7.1 0s2 5.1 0 7.1l-46 46c-1 1-2.3 1.5-3.6 1.5z"/><path d="m28.5 426.5c-1.3 0-2.6-.5-3.5-1.5-2-2-2-5.1 0-7.1l63.3-63.3c2-2 5.1-2 7.1 0s2 5.1 0 7.1l-63.4 63.4c-1 .9-2.3 1.4-3.5 1.4z"/><path d="m72.4 435.9c-1.3 0-2.6-.5-3.5-1.5-2-2-2-5.1 0-7.1l46-46c2-2 5.1-2 7.1 0s2 5.1 0 7.1l-46 46c-1 1-2.3 1.5-3.6 1.5z"/><path d="m124.5 437c-1.3 0-2.6-.5-3.5-1.5-2-2-2-5.1 0-7.1l46-46c2-2 5.1-2 7.1 0s2 5.1 0 7.1l-46 46c-1 1-2.3 1.5-3.6 1.5z"/></g></svg>