<?xml version="1.0" encoding="iso-8859-1"?>
<!-- Generator: Adobe Illustrator 19.0.0, SVG Export Plug-In . SVG Version: 6.00 Build 0)  -->
<svg version="1.1" id="Capa_1" xmlns="http://www.w3.org/2000/svg" xmlns:xlink="http://www.w3.org/1999/xlink" x="0px" y="0px"
	 viewBox="0 0 512.111 512.111" style="enable-background:new 0 0 512.111 512.111;" xml:space="preserve">
<g>
	<g>
		<path d="M346.862,37.788c-49.823-50.151-130.868-50.417-181.018-0.594c-50.151,49.823-50.417,130.868-0.594,181.018
			c24.129,24.215,37.615,57.047,37.472,91.232v42.667c0,5.891,4.776,10.667,10.667,10.667h85.333
			c5.891,0,10.667-4.776,10.667-10.667v-42.667c0.443-34.786,14.402-68.036,38.923-92.715
			C396.529,166.596,395.885,87.133,346.862,37.788z M332.941,201.903c-28.368,28.652-44.467,67.223-44.885,107.541v32h-64v-32
			c0.16-39.825-15.56-78.071-43.68-106.272c-16.816-16.913-27.475-38.977-30.27-62.662c-6.9-58.463,34.9-111.451,93.363-118.351
			c31.634-3.722,63.277,6.888,86.273,28.929C372.272,91.851,373.704,159.373,332.941,201.903z" fill="#596b93"/>
	</g>
</g>
<g>
	<g>
		<rect x="181.389" y="298.778" width="149.333" height="21.333" fill="#596b93"/>
	</g>
</g>
<g>
	<g>
		<path d="M323.181,109.882l-36.48,36.48l-24.725-16.48c-3.584-2.391-8.256-2.391-11.84,0l-24.725,16.48l-36.48-36.48
			l-15.083,15.083l42.667,42.667c3.596,3.597,9.23,4.155,13.461,1.333l26.08-17.387l26.08,17.408
			c1.753,1.169,3.813,1.792,5.92,1.792c2.832-0.006,5.545-1.138,7.541-3.147l42.667-42.667L323.181,109.882z" fill="#596b93"/>
	</g>
</g>
<g>
	<g>
		<rect x="245.389" y="170.778" width="21.333" height="128" fill="#596b93"/>
	</g>
</g>
<g>
	<g>
		<path d="M266.722,454.102c-1.291-34.055-29.945-60.616-64-59.325H21.389v-352h117.333V21.444h-128
			c-5.891,0-10.667,4.776-10.667,10.667v373.333c0,5.891,4.776,10.667,10.667,10.667h192c1.088-0.043,2.177-0.043,3.265,0
			c22.663,0.902,40.303,20.004,39.402,42.667h21.333C266.781,457.22,266.781,455.66,266.722,454.102z" fill="#596b93"/>
	</g>
</g>
<g>
	<g>
		<path d="M501.389,21.444h-128v21.333h117.333v352H309.389c-1.558-0.059-3.117-0.059-4.675,0
			c-34.055,1.291-60.616,29.945-59.325,64h21.333c0-1.739,0.491-42.667,42.667-42.667h192c5.891,0,10.667-4.776,10.667-10.667
			V32.111C512.055,26.22,507.28,21.444,501.389,21.444z" fill="#596b93"/>
	</g>
</g>
<g>
	<g>
		<path d="M298.722,437.444c-5.891,0-10.667,4.776-10.667,10.667v10.667c0,17.673-14.327,32-32,32s-32-14.327-32-32v-10.667
			c0-5.891-4.776-10.667-10.667-10.667H0.056v21.333h202.667c0.035,29.441,23.893,53.298,53.333,53.333
			c29.441-0.035,53.298-23.893,53.333-53.333h202.667v-21.333H298.722z" fill="#596b93"/>
	</g>
</g>
<g>
	<g>
		<rect x="245.389" y="352.111" width="21.333" height="96" fill="#596b93"/>
	</g>
</g>
<g>
	<g>
		<rect x="74.722" y="85.444" width="21.333" height="21.333" fill="#596b93"/>
	</g>
</g>
<g>
	<g>
		<rect x="74.722" y="149.444" width="21.333" height="21.333" fill="#596b93"/>
	</g>
</g>
<g>
	<g>
		<rect x="106.722" y="213.444" width="21.333" height="21.333" fill="#596b93"/>
	</g>
</g>
<g>
	<g>
		<rect x="42.722" y="352.111" width="96" height="21.333" fill="#596b93"/>
	</g>
</g>
<g>
	<g>
		<rect x="42.722" y="309.444" width="53.333" height="21.333" fill="#596b93"/>
	</g>
</g>
<g>
	<g>
		<rect x="42.722" y="266.778" width="32" height="21.333" fill="#596b93"/>
	</g>
</g>
<g>
	<g>
		<rect x="416.056" y="85.444" width="21.333" height="21.333" fill="#596b93"/>
	</g>
</g>
<g>
	<g>
		<rect x="416.056" y="149.444" width="21.333" height="21.333" fill="#596b93"/>
	</g>
</g>
<g>
	<g>
		<rect x="384.056" y="213.444" width="21.333" height="21.333" fill="#596b93"/>
	</g>
</g>
<g>
	<g>
		<rect x="373.389" y="352.111" width="96" height="21.333" fill="#596b93"/>
	</g>
</g>
<g>
	<g>
		<rect x="416.056" y="309.444" width="53.333" height="21.333" fill="#596b93"/>
	</g>
</g>
<g>
	<g>
		<rect x="437.389" y="266.778" width="32" height="21.333" fill="#596b93"/>
	</g>
</g>
</svg>
