<svg width="100" height="100" viewBox="0 0 100 100" fill="none" xmlns="http://www.w3.org/2000/svg">
<path d="M43.5287 9.58323C44.1273 9.58323 44.665 9.38153 45.0543 8.99223C45.4436 8.60293 45.6453 8.06523 45.6453 7.46662V2.61661C45.6453 2.01799 45.4436 1.4803 45.0543 1.091C44.665 0.701701 44.1273 0.5 43.5287 0.5C42.9301 0.5 42.3924 0.701701 42.0031 1.091C41.6138 1.4803 41.4121 2.01799 41.4121 2.61661V7.46662C41.4121 8.06516 41.6138 8.60284 42.0031 8.99214C42.3924 9.38145 42.9301 9.58323 43.5287 9.58323Z" fill="#160647" stroke="#160647"/>
<path d="M25.9076 20.8997H30.7576C31.8091 20.8997 32.8742 20.0612 32.8742 18.7831C32.8742 18.1845 32.6725 17.6468 32.2832 17.2575C31.8939 16.8682 31.3562 16.6665 30.7576 16.6665H25.9076C25.309 16.6665 24.7713 16.8682 24.382 17.2575C23.9927 17.6468 23.791 18.1845 23.791 18.7831C23.791 19.3817 23.9927 19.9194 24.382 20.3087C24.7713 20.698 25.309 20.8997 25.9076 20.8997Z" fill="#160647" stroke="#160647"/>
<path d="M52.7295 18.7831C52.7295 19.3817 52.9312 19.9194 53.3205 20.3087C53.7098 20.698 54.2475 20.8997 54.8461 20.8997H59.6961C60.7476 20.8997 61.8127 20.0612 61.8127 18.7831C61.8127 18.1845 61.611 17.6468 61.2217 17.2575C60.8324 16.8682 60.2947 16.6665 59.6961 16.6665L54.8462 16.6665C54.8462 16.6665 54.8461 16.6665 54.8461 16.6665C54.2475 16.6664 53.7099 16.8681 53.3206 17.2574C52.9313 17.6467 52.7295 18.1845 52.7295 18.7831Z" fill="#160647" stroke="#160647"/>
<path d="M53.3609 5.98103L53.3609 5.98108L50.1275 9.21449C49.2856 10.0564 49.2857 11.3429 50.1274 12.1849L50.1275 12.185C50.3187 12.3762 50.5298 12.5395 50.7833 12.6521C51.039 12.7657 51.312 12.8164 51.6128 12.8164C51.9137 12.8164 52.1867 12.7657 52.4424 12.6521C52.6958 12.5395 52.9069 12.3762 53.098 12.185C53.098 12.185 53.0981 12.1849 53.0981 12.1849L56.3314 8.95159C57.1733 8.10969 57.1732 6.82315 56.3315 5.98113C55.4895 5.13891 54.2029 5.13933 53.3609 5.98103Z" fill="#160647" stroke="#160647"/>
<path d="M35.4767 9.21447L35.4768 9.21452C36.3185 10.0565 36.3186 11.343 35.4768 12.1849L35.4767 9.21447ZM35.4767 9.21447L32.2435 5.98125C31.4016 5.13936 30.1151 5.13943 29.2731 5.9812L29.273 5.98125M35.4767 9.21447L29.273 5.98125M29.273 5.98125C28.4311 6.82315 28.4312 8.10969 29.273 8.95171L29.273 8.95177M29.273 5.98125L29.273 8.95177M29.273 8.95177L32.5064 12.185C32.5064 12.185 32.5064 12.185 32.5064 12.185M29.273 8.95177L32.5064 12.185M32.5064 12.185C32.6976 12.3762 32.9086 12.5395 33.1621 12.6521C33.4177 12.7657 33.6907 12.8164 33.9916 12.8164M32.5064 12.185L33.9916 12.8164M33.9916 12.8164C34.4385 12.8164 35.0535 12.6084 35.4767 12.185L33.9916 12.8164Z" fill="#160647" stroke="#160647"/>
<path d="M76.6714 44.1499C75.4277 44.1499 74.187 44.4792 73.1196 45.0519C72.9106 40.9257 69.5362 37.6833 65.3548 37.6833C64.111 37.6833 62.8703 38.0126 61.8029 38.5853C61.594 34.459 58.2196 31.2167 54.0382 31.2167C52.7984 31.2167 51.5616 31.5438 50.4966 32.1132V19.7533C50.4966 15.4499 47.0535 11.8167 42.7215 11.8167C38.3896 11.8167 34.9465 15.4499 34.9465 19.7533V50.2807C31.2367 45.9096 24.8967 43.7742 19.9011 45.803C19.4633 45.9783 19.0739 46.1954 18.7517 46.3766C18.4094 46.5692 18.176 46.7004 17.99 46.7624L17.9187 46.7861L17.8575 46.8299C16.644 47.6966 16.0517 48.6306 15.7742 49.4632C15.5311 50.1926 15.5403 50.8233 15.5453 51.1649C15.5457 51.1913 15.5461 51.216 15.5463 51.2389C15.5081 51.4762 15.4819 51.7162 15.5155 51.9684C15.5524 52.2452 15.6553 52.498 15.8215 52.771C16.1152 53.2535 16.6719 53.8956 17.6016 54.9679C17.6555 55.0301 17.7106 55.0937 17.7671 55.1587C17.8278 55.2316 17.8902 55.3065 17.9543 55.3833C20.4551 58.3827 25.4142 64.3306 28.5373 70.2645L28.5726 70.3315L28.6066 70.3656C28.6142 70.3761 28.6249 70.3913 28.6394 70.4123C28.674 70.4625 28.7224 70.5344 28.7849 70.6283C28.8436 70.7165 28.9106 70.8175 28.9874 70.9334C29.0782 71.0705 29.1827 71.2283 29.3036 71.4099C29.7418 72.0686 30.3556 72.9817 31.0965 74.0372C32.547 76.1036 34.4902 78.7239 36.5631 81.054V85.0666C36.5631 89.0049 38.1169 92.3755 40.7926 94.7563C43.4642 97.1334 47.2259 98.5001 51.6132 98.5001H66.0016C72.986 98.5001 78.5574 94.4937 79.9087 88.2441L79.9089 88.2432C80.2573 86.6173 80.5971 85.7128 80.8522 85.249C80.9365 85.1339 81.0211 85.0151 81.1067 84.892C82.6607 83.1454 84.4468 78.9847 84.4468 73.4266V51.9249C84.4464 47.6072 80.9892 44.1499 76.6714 44.1499ZM28.5959 70.3513C28.5953 70.3505 28.5961 70.3514 28.5984 70.3544C28.5971 70.3528 28.5963 70.3518 28.5959 70.3513ZM32.1594 67.9999L32.159 67.9993C29.2099 62.528 24.817 57.062 22.1194 53.7053C21.6868 53.167 21.2978 52.683 20.9653 52.2619L20.9472 52.2389L20.9265 52.2182C20.7005 51.9922 20.4703 51.7242 20.2473 51.4607C20.2246 51.4338 20.2019 51.4069 20.1791 51.38C20.0451 51.2213 19.9106 51.0621 19.7867 50.9256C19.7922 50.883 19.8015 50.8501 19.8172 50.8146C19.8499 50.7412 19.9348 50.6096 20.1916 50.4114C20.7991 50.1075 21.1151 49.9497 21.4258 49.7944C23.0513 49.1364 25.2908 49.2327 27.4666 50.068C29.6409 50.9028 31.6835 52.4511 32.9104 54.5982L32.9103 54.5983L32.9158 54.6074L34.9098 57.9308C34.9513 58.1696 35.0367 58.4067 35.1688 58.6315L36.7773 61.8486L36.7913 61.8764L36.8086 61.9024C37.2087 62.5025 37.8389 62.9334 38.6796 62.9334L38.7009 62.9334C38.8458 62.9334 39.0433 62.9335 39.2063 62.9064C39.2895 62.8925 39.4199 62.8636 39.541 62.7858C39.593 62.7524 39.6442 62.7086 39.6887 62.655C40.6604 62.1496 40.9961 60.9247 40.4119 59.9305L39.1794 57.4655V19.7533C39.1794 17.7533 40.908 16.0499 42.721 16.0499C44.6831 16.0499 46.2626 17.7402 46.2626 19.7533V38.6683V38.6683V38.6684V38.6684V38.6684V38.6684V38.6685V38.6685V38.6685V38.6686V38.6686V38.6687V38.6687V38.6688V38.6688V38.6689V38.669V38.669V38.6691V38.6692V38.6693V38.6694V38.6695V38.6695V38.6696V38.6697V38.6698V38.6699V38.6701V38.6702V38.6703V38.6704V38.6705V38.6707V38.6708V38.6709V38.6711V38.6712V38.6713V38.6715V38.6716V38.6718V38.6719V38.6721V38.6723V38.6724V38.6726V38.6728V38.673V38.6731V38.6733V38.6735V38.6737V38.6739V38.6741V38.6743V38.6745V38.6747V38.6749V38.6751V38.6754V38.6756V38.6758V38.676V38.6763V38.6765V38.6767V38.677V38.6772V38.6775V38.6777V38.678V38.6782V38.6785V38.6787V38.679V38.6793V38.6795V38.6798V38.6801V38.6804V38.6807V38.6809V38.6812V38.6815V38.6818V38.6821V38.6824V38.6827V38.683V38.6833V38.6837V38.684V38.6843V38.6846V38.6849V38.6853V38.6856V38.6859V38.6863V38.6866V38.687V38.6873V38.6877V38.688V38.6884V38.6887V38.6891V38.6895V38.6898V38.6902V38.6906V38.6909V38.6913V38.6917V38.6921V38.6925V38.6929V38.6933V38.6937V38.6941V38.6945V38.6949V38.6953V38.6957V38.6961V38.6965V38.6969V38.6973V38.6978V38.6982V38.6986V38.6991V38.6995V38.6999V38.7004V38.7008V38.7013V38.7017V38.7022V38.7026V38.7031V38.7035V38.704V38.7045V38.7049V38.7054V38.7059V38.7063V38.7068V38.7073V38.7078V38.7083V38.7088V38.7092V38.7097V38.7102V38.7107V38.7112V38.7117V38.7122V38.7128V38.7133V38.7138V38.7143V38.7148V38.7153V38.7159V38.7164V38.7169V38.7174V38.718V38.7185V38.719V38.7196V38.7201V38.7207V38.7212V38.7218V38.7223V38.7229V38.7234V38.724V38.7246V38.7251V38.7257V38.7263V38.7268V38.7274V38.728V38.7286V38.7291V38.7297V38.7303V38.7309V38.7315V38.7321V38.7327V38.7333V38.7339V38.7345V38.7351V38.7357V38.7363V38.7369V38.7375V38.7381V38.7387V38.7394V38.74V38.7406V38.7412V38.7418V38.7425V38.7431V38.7437V38.7444V38.745V38.7457V38.7463V38.7469V38.7476V38.7482V38.7489V38.7495V38.7502V38.7509V38.7515V38.7522V38.7528V38.7535V38.7542V38.7548V38.7555V38.7562V38.7569V38.7575V38.7582V38.7589V38.7596V38.7603V38.761V38.7616V38.7623V38.763V38.7637V38.7644V38.7651V38.7658V38.7665V38.7672V38.7679V38.7686V38.7693V38.7701V38.7708V38.7715V38.7722V38.7729V38.7736V38.7744V38.7751V38.7758V38.7765V38.7773V38.778V38.7787V38.7795V38.7802V38.7809V38.7817V38.7824V38.7832V38.7839V38.7847V38.7854V38.7862V38.7869V38.7877V38.7884V38.7892V38.7899V38.7907V38.7915V38.7922V38.793V38.7937V38.7945V38.7953V38.7961V38.7968V38.7976V38.7984V38.7992V38.7999V38.8007V38.8015V38.8023V38.8031V38.8039V38.8047V38.8054V38.8062V38.807V38.8078V38.8086V38.8094V38.8102V38.811V38.8118V38.8126V38.8134V38.8142V38.815V38.8158V38.8167V38.8175V38.8183V38.8191V38.8199V38.8207V38.8216V38.8224V38.8232V38.824V38.8248V38.8257V38.8265V38.8273V38.8282V38.829V38.8298V38.8307V38.8315V38.8323V38.8332V38.834V38.8348V38.8357V38.8365V38.8374V38.8382V38.8391V38.8399V38.8408V38.8416V38.8425V38.8433V38.8442V38.845V38.8459V38.8467V38.8476V38.8484V38.8493V38.8502V38.851V38.8519V38.8528V38.8536V38.8545V38.8554V38.8562V38.8571V38.858V38.8588V38.8597V38.8606V38.8615V38.8623V38.8632V38.8641V38.865V38.8658V38.8667V38.8676V38.8685V38.8694V38.8703V38.8711V38.872V38.8729V38.8738V38.8747V38.8756V38.8765V38.8774V38.8783V38.8792V38.8801V38.881V38.8819V38.8827V38.8836V38.8845V38.8854V38.8863V38.8873V38.8882V38.8891V38.89V38.8909V38.8918V38.8927V38.8936V38.8945V38.8954V38.8963V38.8972V38.8981V38.899V38.9V38.9009V38.9018V38.9027V38.9036V38.9045V38.9054V38.9064V38.9073V38.9082V38.9091V38.91V38.911V38.9119V38.9128V38.9137V38.9147V38.9156V38.9165V38.9174V38.9184V38.9193V38.9202V38.9211V38.9221V38.923V38.9239V38.9248V38.9258V38.9267V38.9276V38.9286V38.9295V38.9304V38.9314V38.9323V38.9332V38.9342V38.9351V38.936V38.937V38.9379V38.9388V38.9398V38.9407V38.9417V38.9426V38.9435V38.9445V38.9454V38.9463V38.9473V38.9482V38.9492V38.9501V38.951V38.952V38.9529V38.9539V38.9548V38.9558V38.9567V38.9576V38.9586V38.9595V38.9605V38.9614V38.9624V38.9633V38.9643V38.9652V38.9661V38.9671V38.968V38.969V38.9699V38.9709V38.9718V38.9728V38.9737V38.9747V38.9756V38.9765V38.9775V38.9784V38.9794V38.9803V38.9813V38.9822V38.9832V38.9841V38.9851V38.986V38.987V38.9879V38.9889V38.9898V38.9908V38.9917V39.8001V59.2002C46.2626 59.7988 46.4643 60.3365 46.8536 60.7258C47.2429 61.1151 47.7806 61.3168 48.3792 61.3168C48.9778 61.3168 49.5155 61.1151 49.9048 60.7258C50.2941 60.3365 50.4958 59.7988 50.4958 59.2002V39.7999V38.6881C50.646 36.8606 52.1987 35.4499 54.0374 35.4499C56.0247 35.4499 57.579 37.0044 57.579 38.9915V44.6499V45.4583V57.5834C57.579 58.182 57.7807 58.7197 58.17 59.109C58.5593 59.4983 59.097 59.7 59.6956 59.7C60.2943 59.7 60.832 59.4983 61.2212 59.109C61.6105 58.7197 61.8122 58.182 61.8122 57.5834V45.4583C61.8122 43.4711 63.3668 41.9167 65.3539 41.9167C67.3409 41.9167 68.8955 43.4713 68.8955 45.4583V51.1167V51.9251V57.7452C68.8955 58.3438 69.0972 58.8815 69.4865 59.2708C69.8758 59.6601 70.4135 59.8618 71.0121 59.8618C71.6107 59.8618 72.1484 59.6601 72.5377 59.2708C72.927 58.8815 73.1287 58.3438 73.1287 57.7452V51.9249C73.1287 49.9377 74.6832 48.3833 76.6703 48.3833C78.6575 48.3833 80.2119 49.9379 80.2119 51.9249V73.265C80.2119 78.0185 78.7273 81.0875 77.9751 82.0685C77.8857 82.1495 77.8015 82.2401 77.7254 82.3415L77.7253 82.3416L77.7035 82.3707C77.2228 83.0118 76.9499 83.3756 76.4569 83.6986C75.9448 84.0341 75.167 84.3405 73.6462 84.7412C73.0734 84.8615 72.6465 85.2576 72.3936 85.7129C72.1389 86.1713 72.0323 86.7361 72.1384 87.2664L72.1516 87.332L72.1815 87.3919C72.5393 88.1072 73.2552 88.7134 74.0687 88.7914V89.1162L74.7003 88.9438C74.9 88.8893 75.0926 88.8352 75.2784 88.7813C73.7155 92.7378 69.5443 94.2667 66.0014 94.2667H51.613C48.866 94.2667 46.1497 93.5198 44.1334 92.0028C42.3072 90.6288 41.0341 88.6097 40.8263 85.8699C41.0176 86.0513 41.213 86.2297 41.4124 86.4045C41.5791 86.5631 41.8252 86.6691 42.0175 86.7333C42.2323 86.8049 42.4897 86.86 42.7214 86.86C43.4168 86.86 43.8742 86.4007 44.1702 86.1034C44.1826 86.0909 44.1947 86.0788 44.2065 86.067C45.1114 85.1621 44.8171 83.8689 44.045 83.0965L44.0314 83.0829L44.0168 83.0704C43.2173 82.3851 42.5974 81.629 41.9283 80.8128C41.6946 80.5278 41.455 80.2355 41.1995 79.9363C41.0155 79.5846 40.6907 79.1027 40.3503 78.7555C40.186 78.5462 39.9785 78.3832 39.7546 78.2641C37.8356 76.0564 35.9449 73.5037 34.5258 71.4897C33.8091 70.4726 33.2142 69.5951 32.7987 68.9721C32.591 68.6607 32.4282 68.4131 32.3175 68.2435C32.2621 68.1587 32.2198 68.0934 32.1914 68.0495L32.1594 67.9999Z" fill="#160647" stroke="#160647"/>
</svg>
