<svg xmlns="http://www.w3.org/2000/svg" xmlns:xlink="http://www.w3.org/1999/xlink" width="1080" zoomAndPan="magnify" viewBox="0 0 810 809.999993" height="1080" preserveAspectRatio="xMidYMid meet" version="1.0"><rect x="-81" width="972" fill="#ffffff" y="-80.999999" height="971.999992" fill-opacity="1"/><rect x="-81" width="972" fill="#ffffff" y="-80.999999" height="971.999992" fill-opacity="1"/><path fill="#f4f4f4" d="M 403.5 306.039062 C 392.476562 307.613281 386.40625 308.964844 376.136719 312.1875 C 340.074219 323.433594 302.96875 352.371094 289.324219 379.808594 C 280.101562 398.25 279.054688 415.191406 286.101562 431.910156 C 289.699219 440.457031 294.195312 446.230469 301.394531 451.625 C 310.6875 458.597656 316.761719 459.722656 343.675781 459.722656 C 366.613281 459.722656 372.6875 460.621094 381.382812 465.121094 C 386.78125 467.894531 394.875 474.417969 400.425781 480.414062 C 410.546875 491.433594 419.992188 500.65625 424.113281 503.578125 C 432.285156 509.351562 444.804688 512.875 453.203125 511.824219 C 468.121094 509.949219 478.765625 504.628906 489.710938 493.53125 C 504.628906 478.464844 514.972656 456.125 520.148438 427.488281 C 521.871094 417.890625 521.945312 395.324219 520.222656 386.105469 C 515.425781 360.089844 504.402344 340.300781 485.8125 324.03125 C 478.316406 317.511719 466.621094 310.988281 457.847656 308.363281 C 444.582031 304.390625 421.789062 303.417969 403.5 306.039062 Z M 403.5 306.039062 " fill-opacity="1" fill-rule="nonzero"/></svg>