<svg width="512" height="512" viewBox="0 0 512 512" fill="none" xmlns="http://www.w3.org/2000/svg">
<path d="M192.76 250.093C210.26 250.093 227.566 252.607 244.292 257.827C241.198 261.018 238.588 264.595 236.364 268.366L218.961 298.531C205.136 322.411 211.323 352.77 233.367 369.302L233.657 369.496L233.367 369.689C211.42 386.222 205.136 416.58 218.961 440.461L236.364 470.626C241.391 479.327 248.836 486.578 257.731 491.316H34.2009C26.1763 491.316 19.6019 484.741 19.6019 476.716V423.154C19.6019 327.632 97.1412 250.093 192.76 250.093ZM192.76 238.491C90.7602 238.491 8 321.251 8 423.251V476.813C8 491.316 19.6986 503.014 34.2009 503.014H319.317C317.964 499.63 317.094 496.053 316.61 492.379L315.257 481.454C313.613 480.487 311.873 479.52 310.229 478.553L300.078 482.904C280.161 491.412 257.054 483.678 246.226 464.921L228.823 434.756C217.994 416 222.925 392.119 240.231 379.067L249.029 372.493C249.029 371.526 249.029 370.559 249.029 369.592C249.029 368.626 249.029 367.659 249.029 366.692L240.231 360.117C222.925 347.065 218.091 323.185 228.823 304.428L246.226 274.263C251.446 265.272 259.664 258.504 269.429 255.217C245.452 244.099 219.251 238.394 192.76 238.491Z" fill="#00B3FF" stroke="#00B3FF" stroke-width="5"/>
<path d="M192.761 19.6019C242.359 19.6019 282.579 59.8218 282.579 109.42C282.579 159.018 242.359 199.238 192.761 199.238C143.163 199.238 102.943 159.018 102.943 109.42C103.039 59.8218 143.163 19.6986 192.761 19.6019ZM192.761 8C136.782 8 91.3408 53.4408 91.3408 109.42C91.3408 165.399 136.782 210.84 192.761 210.743C248.74 210.743 294.084 165.302 294.084 109.323C294.181 53.4408 248.74 8 192.761 8Z" fill="#00B3FF" stroke="#00B3FF" stroke-width="5"/>
<path d="M394.053 247.772C396.18 247.772 397.92 249.319 398.21 251.446L401.304 277.26C401.788 281.514 404.591 285.092 408.652 286.735C417.257 290.023 425.281 294.663 432.436 300.464C434.466 302.108 437.077 303.075 439.687 303.075C441.234 303.075 442.781 302.688 444.231 302.108L468.208 291.956C468.692 291.763 469.272 291.666 469.852 291.569C471.302 291.569 472.752 292.343 473.429 293.6L490.832 323.765C491.896 325.602 491.412 327.922 489.769 329.179L468.982 344.745C465.598 347.355 463.858 351.609 464.534 355.767C465.985 364.855 465.985 374.136 464.534 383.321C463.858 387.575 465.598 391.829 468.982 394.343L489.769 409.909C491.412 411.166 491.896 413.486 490.832 415.323L473.429 445.488C472.656 446.745 471.302 447.615 469.852 447.615C469.272 447.615 468.789 447.518 468.208 447.228L444.328 437.077C442.878 436.496 441.331 436.11 439.784 436.11C437.173 436.11 434.563 436.98 432.533 438.72C425.378 444.521 417.353 449.162 408.749 452.449C404.785 453.996 401.981 457.573 401.401 461.924L398.307 487.738C398.017 489.865 396.277 491.412 394.15 491.412H359.247C357.12 491.412 355.38 489.865 355.09 487.738L351.996 461.924C351.513 457.67 348.612 453.996 344.648 452.449C336.044 449.162 328.019 444.521 320.864 438.72C317.48 436.013 312.936 435.433 309.069 437.077L285.092 447.228C284.608 447.422 284.028 447.518 283.448 447.615C281.998 447.615 280.548 446.841 279.871 445.488L262.468 415.323C261.405 413.486 261.888 411.166 263.532 409.909L284.318 394.343C287.702 391.732 289.443 387.478 288.766 383.321C287.316 374.233 287.316 364.951 288.766 355.767C289.443 351.513 287.702 347.259 284.318 344.745L263.532 329.179C261.888 327.922 261.405 325.602 262.468 323.765L279.871 293.6C280.644 292.343 281.998 291.569 283.448 291.569C284.028 291.569 284.512 291.666 285.092 291.956L309.069 302.108C313.033 303.751 317.577 303.171 320.864 300.464C328.019 294.663 336.044 290.023 344.648 286.735C348.612 285.188 351.513 281.611 351.996 277.26L355.187 251.543C355.477 249.416 357.217 247.869 359.344 247.869L394.053 247.772ZM376.65 418.9C403.915 418.9 425.958 396.857 425.958 369.592C425.958 342.328 403.915 320.284 376.65 320.284C349.386 320.284 327.342 342.328 327.342 369.592C327.439 396.76 349.482 418.804 376.65 418.9ZM394.053 236.17H359.151C351.223 236.17 344.455 242.165 343.488 249.996L340.394 275.81C330.629 279.581 321.638 284.802 313.516 291.376L289.636 281.224C282.288 278.131 273.78 280.934 269.816 287.799L252.413 317.964C248.449 324.828 250.19 333.626 256.571 338.46L277.357 354.026C275.714 364.275 275.714 374.813 277.357 385.061L256.571 400.627C250.19 405.461 248.449 414.259 252.413 421.124L269.816 451.289C273.78 458.153 282.288 461.054 289.636 457.96L313.516 447.712C321.638 454.286 330.726 459.507 340.394 463.277L343.488 489.092C344.455 497.02 351.126 502.917 359.151 502.917H394.053C401.981 502.917 408.749 496.923 409.716 489.092L412.809 463.277C422.478 459.507 431.566 454.286 439.687 447.712L463.568 457.863C470.916 460.957 479.424 458.153 483.388 451.192L500.79 421.027C504.754 414.163 503.014 405.365 496.633 400.531L475.943 385.158C477.587 374.91 477.587 364.371 475.943 354.123L496.73 338.557C503.111 333.82 504.851 325.022 500.887 318.06L483.484 287.896C479.52 281.031 471.012 278.131 463.664 281.321L439.784 291.473C431.662 284.898 422.574 279.678 412.906 275.907L409.812 250.093C408.749 242.068 401.981 236.17 394.053 236.17ZM376.65 407.298C355.863 407.298 338.944 390.379 338.944 369.592C338.944 348.805 355.863 331.886 376.65 331.886C397.437 331.886 414.356 348.805 414.356 369.592C414.356 390.379 397.534 407.298 376.65 407.298Z" fill="#00B3FF" stroke="#00B3FF" stroke-width="5"/>
</svg>
